<mxfile host="app.diagrams.net" modified="2024-01-13T14:01:17.819Z" agent="Mozilla/5.0 (Windows NT 10.0; Win64; x64) AppleWebKit/537.36 (KHTML, like Gecko) Chrome/120.0.0.0 Safari/537.36" etag="XAzElrTtDRX23ocDm1Ny" version="22.1.18" type="github">
  <diagram name="페이지-1" id="HAdsagcqMK5C1EckOBzp">
    <mxGraphModel dx="1192" dy="770" grid="1" gridSize="10" guides="1" tooltips="1" connect="1" arrows="1" fold="1" page="1" pageScale="1" pageWidth="827" pageHeight="1169" math="0" shadow="0">
      <root>
        <mxCell id="0" />
        <mxCell id="1" parent="0" />
        <mxCell id="Z0JOjRXuJvDPHAnfLGd_-11" value="BufferedWriter" style="rounded=1;whiteSpace=wrap;html=1;" parent="1" vertex="1">
          <mxGeometry x="377" y="50" width="140" height="30" as="geometry" />
        </mxCell>
        <mxCell id="Z0JOjRXuJvDPHAnfLGd_-39" style="edgeStyle=orthogonalEdgeStyle;rounded=0;orthogonalLoop=1;jettySize=auto;html=1;entryX=0;entryY=0.5;entryDx=0;entryDy=0;" parent="1" source="Z0JOjRXuJvDPHAnfLGd_-12" target="Z0JOjRXuJvDPHAnfLGd_-11" edge="1">
          <mxGeometry relative="1" as="geometry" />
        </mxCell>
        <mxCell id="Z0JOjRXuJvDPHAnfLGd_-40" style="edgeStyle=orthogonalEdgeStyle;rounded=0;orthogonalLoop=1;jettySize=auto;html=1;entryX=0;entryY=0.5;entryDx=0;entryDy=0;" parent="1" source="Z0JOjRXuJvDPHAnfLGd_-12" target="Z0JOjRXuJvDPHAnfLGd_-28" edge="1">
          <mxGeometry relative="1" as="geometry" />
        </mxCell>
        <mxCell id="Z0JOjRXuJvDPHAnfLGd_-41" style="edgeStyle=orthogonalEdgeStyle;rounded=0;orthogonalLoop=1;jettySize=auto;html=1;entryX=0;entryY=0.5;entryDx=0;entryDy=0;" parent="1" source="Z0JOjRXuJvDPHAnfLGd_-12" target="Z0JOjRXuJvDPHAnfLGd_-29" edge="1">
          <mxGeometry relative="1" as="geometry" />
        </mxCell>
        <mxCell id="Z0JOjRXuJvDPHAnfLGd_-42" style="edgeStyle=orthogonalEdgeStyle;rounded=0;orthogonalLoop=1;jettySize=auto;html=1;entryX=0;entryY=0.75;entryDx=0;entryDy=0;" parent="1" source="Z0JOjRXuJvDPHAnfLGd_-12" target="Z0JOjRXuJvDPHAnfLGd_-30" edge="1">
          <mxGeometry relative="1" as="geometry" />
        </mxCell>
        <mxCell id="Z0JOjRXuJvDPHAnfLGd_-43" style="edgeStyle=orthogonalEdgeStyle;rounded=0;orthogonalLoop=1;jettySize=auto;html=1;entryX=0;entryY=0.5;entryDx=0;entryDy=0;" parent="1" source="Z0JOjRXuJvDPHAnfLGd_-12" target="Z0JOjRXuJvDPHAnfLGd_-31" edge="1">
          <mxGeometry relative="1" as="geometry" />
        </mxCell>
        <mxCell id="mFGti4UZ50AxUVJcvlWf-3" style="edgeStyle=orthogonalEdgeStyle;rounded=0;orthogonalLoop=1;jettySize=auto;html=1;entryX=0;entryY=0.5;entryDx=0;entryDy=0;" edge="1" parent="1" source="Z0JOjRXuJvDPHAnfLGd_-12" target="mFGti4UZ50AxUVJcvlWf-1">
          <mxGeometry relative="1" as="geometry" />
        </mxCell>
        <mxCell id="mFGti4UZ50AxUVJcvlWf-4" style="edgeStyle=orthogonalEdgeStyle;rounded=0;orthogonalLoop=1;jettySize=auto;html=1;entryX=0;entryY=0.5;entryDx=0;entryDy=0;" edge="1" parent="1" source="Z0JOjRXuJvDPHAnfLGd_-12" target="mFGti4UZ50AxUVJcvlWf-2">
          <mxGeometry relative="1" as="geometry" />
        </mxCell>
        <mxCell id="Z0JOjRXuJvDPHAnfLGd_-12" value="Writer" style="rounded=1;whiteSpace=wrap;html=1;" parent="1" vertex="1">
          <mxGeometry x="210" y="180" width="120" height="30" as="geometry" />
        </mxCell>
        <mxCell id="Z0JOjRXuJvDPHAnfLGd_-44" style="edgeStyle=orthogonalEdgeStyle;rounded=0;orthogonalLoop=1;jettySize=auto;html=1;entryX=0;entryY=0.75;entryDx=0;entryDy=0;" parent="1" target="Z0JOjRXuJvDPHAnfLGd_-15" edge="1">
          <mxGeometry relative="1" as="geometry">
            <mxPoint x="330" y="481" as="sourcePoint" />
          </mxGeometry>
        </mxCell>
        <mxCell id="Z0JOjRXuJvDPHAnfLGd_-46" style="edgeStyle=orthogonalEdgeStyle;rounded=0;orthogonalLoop=1;jettySize=auto;html=1;entryX=0;entryY=0.75;entryDx=0;entryDy=0;" parent="1" target="Z0JOjRXuJvDPHAnfLGd_-17" edge="1">
          <mxGeometry relative="1" as="geometry">
            <mxPoint x="330" y="481" as="sourcePoint" />
          </mxGeometry>
        </mxCell>
        <mxCell id="Z0JOjRXuJvDPHAnfLGd_-47" style="edgeStyle=orthogonalEdgeStyle;rounded=0;orthogonalLoop=1;jettySize=auto;html=1;entryX=0;entryY=0.5;entryDx=0;entryDy=0;" parent="1" target="Z0JOjRXuJvDPHAnfLGd_-23" edge="1">
          <mxGeometry relative="1" as="geometry">
            <mxPoint x="330" y="481" as="sourcePoint" />
          </mxGeometry>
        </mxCell>
        <mxCell id="Z0JOjRXuJvDPHAnfLGd_-48" style="edgeStyle=orthogonalEdgeStyle;rounded=0;orthogonalLoop=1;jettySize=auto;html=1;entryX=0;entryY=0.5;entryDx=0;entryDy=0;" parent="1" target="Z0JOjRXuJvDPHAnfLGd_-24" edge="1">
          <mxGeometry relative="1" as="geometry">
            <mxPoint x="330" y="481" as="sourcePoint" />
          </mxGeometry>
        </mxCell>
        <mxCell id="Z0JOjRXuJvDPHAnfLGd_-49" style="edgeStyle=orthogonalEdgeStyle;rounded=0;orthogonalLoop=1;jettySize=auto;html=1;entryX=0;entryY=0.5;entryDx=0;entryDy=0;" parent="1" target="Z0JOjRXuJvDPHAnfLGd_-25" edge="1">
          <mxGeometry relative="1" as="geometry">
            <mxPoint x="330" y="481" as="sourcePoint" />
          </mxGeometry>
        </mxCell>
        <mxCell id="Z0JOjRXuJvDPHAnfLGd_-13" value="Reader" style="rounded=1;whiteSpace=wrap;html=1;" parent="1" vertex="1">
          <mxGeometry x="210" y="454" width="120" height="30" as="geometry" />
        </mxCell>
        <mxCell id="Z0JOjRXuJvDPHAnfLGd_-15" value="CharArrayReader" style="rounded=1;whiteSpace=wrap;html=1;" parent="1" vertex="1">
          <mxGeometry x="377" y="429" width="140" height="30" as="geometry" />
        </mxCell>
        <mxCell id="Z0JOjRXuJvDPHAnfLGd_-54" style="edgeStyle=orthogonalEdgeStyle;rounded=0;orthogonalLoop=1;jettySize=auto;html=1;entryX=0;entryY=0.5;entryDx=0;entryDy=0;exitX=1;exitY=0.5;exitDx=0;exitDy=0;" parent="1" source="Z0JOjRXuJvDPHAnfLGd_-25" target="Z0JOjRXuJvDPHAnfLGd_-21" edge="1">
          <mxGeometry relative="1" as="geometry" />
        </mxCell>
        <mxCell id="Z0JOjRXuJvDPHAnfLGd_-56" style="edgeStyle=orthogonalEdgeStyle;rounded=0;orthogonalLoop=1;jettySize=auto;html=1;entryX=0;entryY=0.5;entryDx=0;entryDy=0;" parent="1" source="Z0JOjRXuJvDPHAnfLGd_-17" target="Z0JOjRXuJvDPHAnfLGd_-20" edge="1">
          <mxGeometry relative="1" as="geometry" />
        </mxCell>
        <mxCell id="Z0JOjRXuJvDPHAnfLGd_-17" value="FilterReader" style="rounded=1;whiteSpace=wrap;html=1;" parent="1" vertex="1">
          <mxGeometry x="377" y="469" width="140" height="30" as="geometry" />
        </mxCell>
        <mxCell id="Z0JOjRXuJvDPHAnfLGd_-18" value="PushbankInputStream" style="rounded=1;whiteSpace=wrap;html=1;" parent="1" vertex="1">
          <mxGeometry x="570" y="509" width="140" height="30" as="geometry" />
        </mxCell>
        <mxCell id="Z0JOjRXuJvDPHAnfLGd_-20" value="LineNumberInputStream" style="rounded=1;whiteSpace=wrap;html=1;" parent="1" vertex="1">
          <mxGeometry x="570" y="469" width="140" height="30" as="geometry" />
        </mxCell>
        <mxCell id="Z0JOjRXuJvDPHAnfLGd_-21" value="BufferedInputStream" style="rounded=1;whiteSpace=wrap;html=1;" parent="1" vertex="1">
          <mxGeometry x="570" y="390" width="140" height="30" as="geometry" />
        </mxCell>
        <mxCell id="mFGti4UZ50AxUVJcvlWf-5" style="edgeStyle=orthogonalEdgeStyle;rounded=0;orthogonalLoop=1;jettySize=auto;html=1;" edge="1" parent="1" source="Z0JOjRXuJvDPHAnfLGd_-23" target="Z0JOjRXuJvDPHAnfLGd_-18">
          <mxGeometry relative="1" as="geometry" />
        </mxCell>
        <mxCell id="Z0JOjRXuJvDPHAnfLGd_-23" value="InputStreamReader" style="rounded=1;whiteSpace=wrap;html=1;" parent="1" vertex="1">
          <mxGeometry x="377" y="509" width="140" height="30" as="geometry" />
        </mxCell>
        <mxCell id="Z0JOjRXuJvDPHAnfLGd_-24" value="PipedReader" style="rounded=1;whiteSpace=wrap;html=1;" parent="1" vertex="1">
          <mxGeometry x="377" y="549" width="140" height="30" as="geometry" />
        </mxCell>
        <mxCell id="Z0JOjRXuJvDPHAnfLGd_-25" value="BufferedReader" style="rounded=1;whiteSpace=wrap;html=1;" parent="1" vertex="1">
          <mxGeometry x="377" y="390" width="140" height="30" as="geometry" />
        </mxCell>
        <mxCell id="Z0JOjRXuJvDPHAnfLGd_-28" value="CharArrayWriter" style="rounded=1;whiteSpace=wrap;html=1;" parent="1" vertex="1">
          <mxGeometry x="377" y="94" width="140" height="30" as="geometry" />
        </mxCell>
        <mxCell id="Z0JOjRXuJvDPHAnfLGd_-51" style="edgeStyle=orthogonalEdgeStyle;rounded=0;orthogonalLoop=1;jettySize=auto;html=1;entryX=0;entryY=0.5;entryDx=0;entryDy=0;" parent="1" source="Z0JOjRXuJvDPHAnfLGd_-29" target="Z0JOjRXuJvDPHAnfLGd_-33" edge="1">
          <mxGeometry relative="1" as="geometry" />
        </mxCell>
        <mxCell id="Z0JOjRXuJvDPHAnfLGd_-29" value="FilterWriter" style="rounded=1;whiteSpace=wrap;html=1;" parent="1" vertex="1">
          <mxGeometry x="377" y="180" width="140" height="30" as="geometry" />
        </mxCell>
        <mxCell id="Z0JOjRXuJvDPHAnfLGd_-30" value="PrintWriter" style="rounded=1;whiteSpace=wrap;html=1;" parent="1" vertex="1">
          <mxGeometry x="377" y="220" width="140" height="30" as="geometry" />
        </mxCell>
        <mxCell id="Z0JOjRXuJvDPHAnfLGd_-31" value="PipedWriter" style="rounded=1;whiteSpace=wrap;html=1;" parent="1" vertex="1">
          <mxGeometry x="377" y="260" width="140" height="30" as="geometry" />
        </mxCell>
        <mxCell id="Z0JOjRXuJvDPHAnfLGd_-33" value="FileWriter" style="rounded=1;whiteSpace=wrap;html=1;" parent="1" vertex="1">
          <mxGeometry x="570" y="180" width="140" height="30" as="geometry" />
        </mxCell>
        <mxCell id="Z0JOjRXuJvDPHAnfLGd_-37" style="edgeStyle=orthogonalEdgeStyle;rounded=0;orthogonalLoop=1;jettySize=auto;html=1;entryX=0;entryY=0.75;entryDx=0;entryDy=0;" parent="1" source="Z0JOjRXuJvDPHAnfLGd_-35" target="Z0JOjRXuJvDPHAnfLGd_-12" edge="1">
          <mxGeometry relative="1" as="geometry" />
        </mxCell>
        <mxCell id="Z0JOjRXuJvDPHAnfLGd_-38" style="edgeStyle=orthogonalEdgeStyle;rounded=0;orthogonalLoop=1;jettySize=auto;html=1;entryX=0;entryY=0.5;entryDx=0;entryDy=0;" parent="1" source="Z0JOjRXuJvDPHAnfLGd_-35" target="Z0JOjRXuJvDPHAnfLGd_-13" edge="1">
          <mxGeometry relative="1" as="geometry" />
        </mxCell>
        <mxCell id="Z0JOjRXuJvDPHAnfLGd_-35" value="Object" style="rounded=1;whiteSpace=wrap;html=1;" parent="1" vertex="1">
          <mxGeometry x="30" y="320" width="120" height="30" as="geometry" />
        </mxCell>
        <mxCell id="mFGti4UZ50AxUVJcvlWf-1" value="OutputStreamWriter" style="rounded=1;whiteSpace=wrap;html=1;" vertex="1" parent="1">
          <mxGeometry x="377" y="140" width="140" height="30" as="geometry" />
        </mxCell>
        <mxCell id="mFGti4UZ50AxUVJcvlWf-2" value="StringWriter" style="rounded=1;whiteSpace=wrap;html=1;" vertex="1" parent="1">
          <mxGeometry x="377" y="300" width="140" height="30" as="geometry" />
        </mxCell>
      </root>
    </mxGraphModel>
  </diagram>
</mxfile>
